<svg width="99" height="15" viewBox="0 0 99 15" fill="none" xmlns="http://www.w3.org/2000/svg">
<path d="M5.25586 7.2959C3.80859 6.87988 2.75391 6.37012 2.0918 5.7666C1.43555 5.15723 1.10742 4.40723 1.10742 3.5166C1.10742 2.50879 1.50879 1.67676 2.31152 1.02051C3.12012 0.358398 4.16895 0.0273438 5.45801 0.0273438C6.33691 0.0273438 7.11914 0.197266 7.80469 0.537109C8.49609 0.876953 9.0293 1.3457 9.4043 1.94336C9.78516 2.54102 9.97559 3.19434 9.97559 3.90332H8.2793C8.2793 3.12988 8.0332 2.52344 7.54102 2.08398C7.04883 1.63867 6.35449 1.41602 5.45801 1.41602C4.62598 1.41602 3.97559 1.60059 3.50684 1.96973C3.04395 2.33301 2.8125 2.83984 2.8125 3.49023C2.8125 4.01172 3.03223 4.4541 3.47168 4.81738C3.91699 5.1748 4.66992 5.50293 5.73047 5.80176C6.79688 6.10059 7.62891 6.43164 8.22656 6.79492C8.83008 7.15234 9.27539 7.57129 9.5625 8.05176C9.85547 8.53223 10.002 9.09766 10.002 9.74805C10.002 10.7852 9.59766 11.6172 8.78906 12.2441C7.98047 12.8652 6.89941 13.1758 5.5459 13.1758C4.66699 13.1758 3.84668 13.0088 3.08496 12.6748C2.32324 12.335 1.73438 11.8721 1.31836 11.2861C0.908203 10.7002 0.703125 10.0352 0.703125 9.29102H2.39941C2.39941 10.0645 2.68359 10.6768 3.25195 11.1279C3.82617 11.5732 4.59082 11.7959 5.5459 11.7959C6.43652 11.7959 7.11914 11.6143 7.59375 11.251C8.06836 10.8877 8.30566 10.3926 8.30566 9.76562C8.30566 9.13867 8.08594 8.65527 7.64648 8.31543C7.20703 7.96973 6.41016 7.62988 5.25586 7.2959ZM13.8604 7.99023V13H12.1729V0.203125H16.8926C18.293 0.203125 19.3887 0.560547 20.1797 1.27539C20.9766 1.99023 21.375 2.93652 21.375 4.11426C21.375 5.35645 20.9854 6.31445 20.2061 6.98828C19.4326 7.65625 18.3223 7.99023 16.875 7.99023H13.8604ZM13.8604 6.61035H16.8926C17.7949 6.61035 18.4863 6.39941 18.9668 5.97754C19.4473 5.5498 19.6875 4.93457 19.6875 4.13184C19.6875 3.37012 19.4473 2.76074 18.9668 2.30371C18.4863 1.84668 17.8271 1.60938 16.9893 1.5918H13.8604V6.61035ZM33.3721 7.01465C33.3721 8.26855 33.1611 9.36426 32.7393 10.3018C32.3174 11.2334 31.7197 11.9453 30.9463 12.4375C30.1729 12.9297 29.2705 13.1758 28.2393 13.1758C27.2314 13.1758 26.3379 12.9297 25.5586 12.4375C24.7793 11.9395 24.1729 11.2334 23.7393 10.3193C23.3115 9.39941 23.0918 8.33594 23.0801 7.12891V6.20605C23.0801 4.97559 23.2939 3.88867 23.7217 2.94531C24.1494 2.00195 24.7529 1.28125 25.5322 0.783203C26.3174 0.279297 27.2139 0.0273438 28.2217 0.0273438C29.2471 0.0273438 30.1494 0.276367 30.9287 0.774414C31.7139 1.2666 32.3174 1.98438 32.7393 2.92773C33.1611 3.86523 33.3721 4.95801 33.3721 6.20605V7.01465ZM31.6934 6.18848C31.6934 4.6709 31.3887 3.50781 30.7793 2.69922C30.1699 1.88477 29.3174 1.47754 28.2217 1.47754C27.1553 1.47754 26.3145 1.88477 25.6992 2.69922C25.0898 3.50781 24.7764 4.63281 24.7588 6.07422V7.01465C24.7588 8.48535 25.0664 9.64258 25.6816 10.4863C26.3027 11.3242 27.1553 11.7432 28.2393 11.7432C29.3291 11.7432 30.1729 11.3477 30.7705 10.5566C31.3682 9.75977 31.6758 8.62012 31.6934 7.1377V6.18848ZM40.5967 7.82324H37.5908V13H35.8945V0.203125H40.1309C41.5723 0.203125 42.6797 0.53125 43.4531 1.1875C44.2324 1.84375 44.6221 2.79883 44.6221 4.05273C44.6221 4.84961 44.4053 5.54395 43.9717 6.13574C43.5439 6.72754 42.9463 7.16992 42.1787 7.46289L45.1846 12.8945V13H43.374L40.5967 7.82324ZM37.5908 6.44336H40.1836C41.0215 6.44336 41.6865 6.22656 42.1787 5.79297C42.6768 5.35938 42.9258 4.7793 42.9258 4.05273C42.9258 3.26172 42.6885 2.65527 42.2139 2.2334C41.7451 1.81152 41.0654 1.59766 40.1748 1.5918H37.5908V6.44336ZM55.1338 1.5918H51.0205V13H49.3418V1.5918H45.2373V0.203125H55.1338V1.5918Z" fill="#E2E2E6"/>
<path d="M63.5625 14.9863H55.5557V13H63.5625V14.9863ZM71.9473 10.3633H67.3242L66.4453 13H63.6416L68.4053 0.203125H70.8486L75.6387 13H72.835L71.9473 10.3633ZM68.0361 8.22754H71.2354L69.627 3.4375L68.0361 8.22754ZM79.4707 8.49121V13H76.834V0.203125H81.8262C82.7871 0.203125 83.6309 0.378906 84.3574 0.730469C85.0898 1.08203 85.6523 1.58301 86.0449 2.2334C86.4375 2.87793 86.6338 3.61328 86.6338 4.43945C86.6338 5.69336 86.2031 6.68359 85.3418 7.41016C84.4863 8.13086 83.2998 8.49121 81.7822 8.49121H79.4707ZM79.4707 6.35547H81.8262C82.5234 6.35547 83.0537 6.19141 83.417 5.86328C83.7861 5.53516 83.9707 5.06641 83.9707 4.45703C83.9707 3.83008 83.7861 3.32324 83.417 2.93652C83.0479 2.5498 82.5381 2.35059 81.8877 2.33887H79.4707V6.35547ZM91.0898 8.49121V13H88.4531V0.203125H93.4453C94.4062 0.203125 95.25 0.378906 95.9766 0.730469C96.709 1.08203 97.2715 1.58301 97.6641 2.2334C98.0566 2.87793 98.2529 3.61328 98.2529 4.43945C98.2529 5.69336 97.8223 6.68359 96.9609 7.41016C96.1055 8.13086 94.9189 8.49121 93.4014 8.49121H91.0898ZM91.0898 6.35547H93.4453C94.1426 6.35547 94.6729 6.19141 95.0361 5.86328C95.4053 5.53516 95.5898 5.06641 95.5898 4.45703C95.5898 3.83008 95.4053 3.32324 95.0361 2.93652C94.667 2.5498 94.1572 2.35059 93.5068 2.33887H91.0898V6.35547Z" fill="#5684FE"/>
</svg>
