<svg width="21" height="21" viewBox="0 0 21 21" fill="none" xmlns="http://www.w3.org/2000/svg">
<path d="M15.2939 13.578H14.3939L14.0739 13.269C15.3279 11.8082 15.9671 9.91825 15.8573 7.99612C15.7476 6.07399 14.8973 4.26914 13.4852 2.96052C12.0731 1.6519 10.2088 0.941301 8.2839 0.97791C6.35898 1.01452 4.52311 1.79549 3.16174 3.15686C1.80038 4.51823 1.0194 6.3541 0.982793 8.27901C0.946183 10.2039 1.65679 12.0682 2.96541 13.4803C4.27402 14.8925 6.07887 15.7427 8.001 15.8525C9.92314 15.9622 11.813 15.323 13.2739 14.069L13.5829 14.389V15.289L19.2999 20.999L20.9999 19.299L15.2939 13.578ZM8.43293 13.578C7.41515 13.578 6.42022 13.2762 5.57397 12.7108C4.72771 12.1453 4.06813 11.3416 3.67865 10.4013C3.28916 9.46103 3.18725 8.42634 3.38581 7.42811C3.58437 6.42988 4.07448 5.51296 4.79416 4.79328C5.51384 4.07359 6.43077 3.58349 7.42899 3.38493C8.42722 3.18637 9.46191 3.28827 10.4022 3.67776C11.3425 4.06725 12.1462 4.72683 12.7117 5.57308C13.2771 6.41934 13.5789 7.41426 13.5789 8.43205C13.5799 9.10809 13.4474 9.77767 13.1891 10.4024C12.9308 11.0272 12.5518 11.5948 12.0738 12.0729C11.5957 12.5509 11.0281 12.9299 10.4033 13.1882C9.77855 13.4465 9.10897 13.579 8.43293 13.578V13.578Z" fill="white"/>
</svg>
