<svg width="20" height="17" viewBox="0 0 20 17" fill="none" xmlns="http://www.w3.org/2000/svg">
<path d="M9.83796 3.59591C10.9871 3.59617 12.0892 4.05274 12.9019 4.86524C13.7146 5.67775 14.1714 6.77971 14.172 7.92891C14.1715 8.47277 14.0655 9.01138 13.86 9.51491L16.391 12.0459C17.7118 10.9449 18.7342 9.52904 19.364 7.92891C18.6109 6.01363 17.2988 4.36936 15.5984 3.21006C13.898 2.05076 11.888 1.43013 9.82996 1.42891C8.65337 1.4286 7.48578 1.63403 6.37996 2.03591L8.25196 3.90791C8.75548 3.70234 9.29409 3.59639 9.83796 3.59591ZM1.17096 1.22891L3.14696 3.20591L3.54696 3.60591C2.09803 4.7302 0.977957 6.22329 0.303955 7.92891C0.797345 9.18548 1.53419 10.3322 2.47214 11.3031C3.4101 12.274 4.53067 13.05 5.76947 13.5864C7.00827 14.1229 8.34086 14.4092 9.69069 14.4291C11.0405 14.4489 12.3809 14.2018 13.635 13.7019L13.999 14.0659L16.539 16.5969L17.639 15.4969L2.27196 0.128906L1.17096 1.22891ZM5.96395 6.02291L7.30396 7.36591C7.25919 7.55026 7.23604 7.7392 7.23496 7.92891C7.23496 8.61847 7.50888 9.27979 7.99648 9.76738C8.48407 10.255 9.14539 10.5289 9.83496 10.5289C10.0247 10.5278 10.2136 10.5047 10.398 10.4599L11.741 11.8029C10.9323 12.2084 10.0165 12.3489 9.12356 12.2044C8.23058 12.0599 7.40581 11.6378 6.76633 10.9979C6.12685 10.3581 5.70517 9.53315 5.56114 8.6401C5.41711 7.74705 5.55805 6.83132 5.96395 6.02291ZM9.70395 5.34691L12.434 8.07691L12.451 7.93791C12.451 7.24834 12.177 6.58702 11.6894 6.09943C11.2018 5.61183 10.5405 5.33791 9.85096 5.33791L9.70395 5.34691Z" fill="#5684FE"/>
</svg>
